<mxfile host="app.diagrams.net" modified="2024-02-05T00:30:12.471Z" agent="Mozilla/5.0 (Macintosh; Intel Mac OS X 10.15; rv:122.0) Gecko/20100101 Firefox/122.0" version="21.6.5" etag="-hXgthdOrp32hwgtaIyf" type="github">
  <diagram name="Page-1" id="Gi67XTzHkIvNx8bv-j6x">
    <mxGraphModel>
      <root>
        <mxCell id="0" />
        <mxCell id="1" parent="0" />
        <mxCell id="2" value="Start" style="whiteSpace=wrap;strokeWidth=2;" vertex="1" parent="1">
          <mxGeometry y="96" width="51" height="35" as="geometry" />
        </mxCell>
        <mxCell id="3" value="Small Tech Company" style="ellipse;aspect=fixed;strokeWidth=2;whiteSpace=wrap;" vertex="1" parent="1">
          <mxGeometry x="101" y="32" width="163" height="163" as="geometry" />
        </mxCell>
        <mxCell id="4" value="Hire talented employees" style="rhombus;strokeWidth=2;whiteSpace=wrap;" vertex="1" parent="1">
          <mxGeometry x="314" width="227" height="227" as="geometry" />
        </mxCell>
        <mxCell id="5" value="Invest in research and development" style="whiteSpace=wrap;strokeWidth=2;" vertex="1" parent="1">
          <mxGeometry x="591" y="96" width="272" height="35" as="geometry" />
        </mxCell>
        <mxCell id="6" value="Develop innovative products" style="whiteSpace=wrap;strokeWidth=2;" vertex="1" parent="1">
          <mxGeometry x="913" y="96" width="219" height="35" as="geometry" />
        </mxCell>
        <mxCell id="7" value="Market and promote products" style="whiteSpace=wrap;strokeWidth=2;" vertex="1" parent="1">
          <mxGeometry x="1182" y="96" width="228" height="35" as="geometry" />
        </mxCell>
        <mxCell id="8" value="Generate sales and revenue" style="whiteSpace=wrap;strokeWidth=2;" vertex="1" parent="1">
          <mxGeometry x="1461" y="96" width="216" height="35" as="geometry" />
        </mxCell>
        <mxCell id="9" value="Invest profits into new projects" style="whiteSpace=wrap;strokeWidth=2;" vertex="1" parent="1">
          <mxGeometry x="1727" y="96" width="242" height="35" as="geometry" />
        </mxCell>
        <mxCell id="10" value="Expand and grow" style="whiteSpace=wrap;strokeWidth=2;" vertex="1" parent="1">
          <mxGeometry x="2018" y="96" width="138" height="35" as="geometry" />
        </mxCell>
        <mxCell id="11" value="Continue success" style="rhombus;strokeWidth=2;whiteSpace=wrap;" vertex="1" parent="1">
          <mxGeometry x="2206" y="28" width="172" height="172" as="geometry" />
        </mxCell>
        <mxCell id="12" value="End" style="whiteSpace=wrap;strokeWidth=2;" vertex="1" parent="1">
          <mxGeometry x="2428" y="96" width="42" height="35" as="geometry" />
        </mxCell>
        <mxCell id="13" value="" style="curved=1;startArrow=none;endArrow=block;exitX=1.0003267923990886;exitY=0.5019047328404018;entryX=0.00010224792854917562;entryY=0.5004089917141967;" edge="1" parent="1" source="2" target="3">
          <mxGeometry relative="1" as="geometry">
            <Array as="points" />
          </mxGeometry>
        </mxCell>
        <mxCell id="14" value="" style="curved=1;startArrow=none;endArrow=block;exitX=0.9972393059291722;exitY=0.5004089917141967;entryX=-0.0019823486059247658;entryY=0.5002936812749518;" edge="1" parent="1" source="3" target="4">
          <mxGeometry relative="1" as="geometry">
            <Array as="points" />
          </mxGeometry>
        </mxCell>
        <mxCell id="15" value="" style="curved=1;startArrow=none;endArrow=block;exitX=0.9986050139439788;exitY=0.5002936812749518;entryX=-0.0011641979217529297;entryY=0.5019047328404018;" edge="1" parent="1" source="4" target="5">
          <mxGeometry relative="1" as="geometry">
            <Array as="points" />
          </mxGeometry>
        </mxCell>
        <mxCell id="16" value="" style="curved=1;startArrow=none;endArrow=block;exitX=0.999754919725306;exitY=0.5019047328404018;entryX=-0.0003043919393461045;entryY=0.5019047328404018;" edge="1" parent="1" source="5" target="6">
          <mxGeometry relative="1" as="geometry">
            <Array as="points" />
          </mxGeometry>
        </mxCell>
        <mxCell id="17" value="" style="curved=1;startArrow=none;endArrow=block;exitX=1.0018264735670395;exitY=0.5019047328404018;entryX=0.0017543759262352659;entryY=0.5019047328404018;" edge="1" parent="1" source="6" target="7">
          <mxGeometry relative="1" as="geometry">
            <Array as="points" />
          </mxGeometry>
        </mxCell>
        <mxCell id="18" value="" style="curved=1;startArrow=none;endArrow=block;exitX=1.0036549651831912;exitY=0.5019047328404018;entryX=-0.0007716108251501013;entryY=0.5019047328404018;" edge="1" parent="1" source="7" target="8">
          <mxGeometry relative="1" as="geometry">
            <Array as="points" />
          </mxGeometry>
        </mxCell>
        <mxCell id="19" value="" style="curved=1;startArrow=none;endArrow=block;exitX=0.9983796190332483;exitY=0.5019047328404018;entryX=-0.001446290449662642;entryY=0.5019047328404018;" edge="1" parent="1" source="8" target="9">
          <mxGeometry relative="1" as="geometry">
            <Array as="points" />
          </mxGeometry>
        </mxCell>
        <mxCell id="20" value="" style="curved=1;startArrow=none;endArrow=block;exitX=0.9969008422094928;exitY=0.5019047328404018;entryX=0.0018116218456323595;entryY=0.5019047328404018;" edge="1" parent="1" source="9" target="10">
          <mxGeometry relative="1" as="geometry">
            <Array as="points" />
          </mxGeometry>
        </mxCell>
        <mxCell id="21" value="" style="curved=1;startArrow=none;endArrow=block;exitX=1.0018116218456323;exitY=0.5019047328404018;entryX=0.0014535105505654978;entryY=0.49748061424077944;" edge="1" parent="1" source="10" target="11">
          <mxGeometry relative="1" as="geometry">
            <Array as="points" />
          </mxGeometry>
        </mxCell>
        <mxCell id="22" value="" style="curved=1;startArrow=none;endArrow=block;exitX=1.0022286925204964;exitY=0.49748061424077944;entryX=0.0091270265125093;entryY=0.5019047328404018;" edge="1" parent="1" source="11" target="12">
          <mxGeometry relative="1" as="geometry">
            <Array as="points" />
          </mxGeometry>
        </mxCell>
      </root>
    </mxGraphModel>
  </diagram>
</mxfile>
